<svg width="16" height="16" viewBox="0 0 16 16" fill="none" xmlns="http://www.w3.org/2000/svg">
<path d="M1.33301 13.9998C1.33301 13.0719 1.57512 12.16 2.03543 11.3543C2.49573 10.5485 3.1583 9.87683 3.95767 9.40554C4.75704 8.93426 5.66553 8.67969 6.5934 8.667C7.52126 8.65431 8.43638 8.88393 9.24834 9.33318" stroke="#82807D" stroke-width="1.5" stroke-linecap="round" stroke-linejoin="round"/>
<path d="M6.66634 8.66667C8.50729 8.66667 9.99967 7.17428 9.99967 5.33333C9.99967 3.49238 8.50729 2 6.66634 2C4.82539 2 3.33301 3.49238 3.33301 5.33333C3.33301 7.17428 4.82539 8.66667 6.66634 8.66667Z" stroke="#82807D" stroke-width="1.5" stroke-linecap="round" stroke-linejoin="round"/>
<path d="M11.333 11.3335L14.6663 14.6668M14.6663 11.3335L11.333 14.6668" stroke="#82807D" stroke-width="1.5" stroke-linecap="round" stroke-linejoin="round"/>
</svg>
