<svg width="24" height="24" viewBox="0 0 24 24" fill="none" xmlns="http://www.w3.org/2000/svg">
<g id="lucide:clock-alert">
<g id="Group">
<path id="Vector" d="M12.0029 6.00391V12.0039L16.0029 14.0039" stroke="#FF7F00" stroke-width="2" stroke-linecap="round" stroke-linejoin="round"/>
<path id="Vector_2" d="M16.0032 21.1638C14.2058 21.949 12.2171 22.1882 10.2847 21.8518C8.35236 21.5154 6.56158 20.6181 5.13529 19.2716C3.70901 17.9251 2.7102 16.1889 2.26317 14.2791C1.81614 12.3692 1.94064 10.3701 2.62118 8.53048C3.30171 6.69086 4.50822 5.092 6.09055 3.93289C7.67288 2.77377 9.56115 2.1056 11.5203 2.01151C13.4795 1.91743 15.4231 2.4016 17.1093 3.40376C18.7954 4.40592 20.1495 5.88181 21.0032 7.64775M20.0032 11.5038V17.5038M20.0032 21.5038H20.0132" stroke="#FF7F00" stroke-width="2" stroke-linecap="round" stroke-linejoin="round"/>
</g>
</g>
</svg>
