<svg width="21" height="20" viewBox="0 0 21 20" fill="none" xmlns="http://www.w3.org/2000/svg">
<g id="lucide:phone">
<path id="Vector" d="M18.8334 14.1004V16.6004C18.8344 16.8325 18.7868 17.0622 18.6939 17.2749C18.6009 17.4875 18.4645 17.6784 18.2935 17.8353C18.1225 17.9922 17.9206 18.1116 17.7007 18.186C17.4809 18.2603 17.2479 18.288 17.0168 18.2671C14.4525 17.9881 11.9894 17.1119 9.82511 15.7087C7.81163 14.4293 6.10455 12.7222 4.82511 10.7087C3.41704 8.5346 2.54062 6.0595 2.26677 3.48374C2.24595 3.2533 2.27334 3.02104 2.34719 2.80176C2.42105 2.58248 2.53975 2.38098 2.69575 2.21009C2.85174 2.0392 3.04161 1.90266 3.25327 1.80917C3.46492 1.71569 3.69372 1.66729 3.92511 1.66707H6.42511C6.82953 1.66309 7.2216 1.80631 7.52824 2.07002C7.83488 2.33373 8.03517 2.69995 8.09177 3.10041C8.19701 3.90052 8.39271 4.6861 8.67511 5.44207C8.78723 5.74034 8.81149 6.0645 8.74503 6.37614C8.67857 6.68778 8.52416 6.97383 8.30011 7.20041L7.24177 8.25874C8.42807 10.345 10.1555 12.0724 12.2418 13.2587L13.3001 12.2004C13.5267 11.9764 13.8127 11.8219 14.1244 11.7555C14.436 11.689 14.7602 11.7133 15.0584 11.8254C15.8144 12.1078 16.6 12.3035 17.4001 12.4087C17.8049 12.4658 18.1746 12.6697 18.4389 12.9817C18.7032 13.2936 18.8436 13.6917 18.8334 14.1004Z" stroke="#FDFCFC" stroke-width="1.5" stroke-linecap="round" stroke-linejoin="round"/>
</g>
</svg>
