<svg width="20" height="20" viewBox="0 0 20 20" fill="none" xmlns="http://www.w3.org/2000/svg">
<g id="lucide:pencil-line">
<path id="Vector" d="M10 16.6664H17.5M12.5 4.16645L15 6.66645M13.6467 3.01811C13.9784 2.68637 14.4284 2.5 14.8975 2.5C15.3667 2.5 15.8166 2.68637 16.1484 3.01811C16.4801 3.34985 16.6665 3.79979 16.6665 4.26895C16.6665 4.7381 16.4801 5.18804 16.1484 5.51978L6.14002 15.5289C5.94177 15.7272 5.69671 15.8722 5.42752 15.9506L3.03419 16.6489C2.96248 16.6699 2.88647 16.6711 2.81411 16.6526C2.74175 16.634 2.67571 16.5964 2.62289 16.5436C2.57008 16.4908 2.53243 16.4247 2.51389 16.3524C2.49535 16.28 2.49661 16.204 2.51752 16.1323L3.21585 13.7389C3.29437 13.4701 3.43939 13.2253 3.63752 13.0273L13.6467 3.01811Z" stroke="#343332" stroke-width="1.66667" stroke-linecap="round" stroke-linejoin="round"/>
</g>
</svg>
